<svg width="300" height="300" viewBox="0 0 300 300" fill="none" xmlns="http://www.w3.org/2000/svg">
<g clip-path="url(#clip0)">
<path d="M190.371 221.394C205.026 212.956 216.765 200.272 223.991 185.067L272.954 101.441C282.357 125.058 284.596 150.966 279.398 175.999C274.199 201.033 261.789 224.107 243.682 242.403C225.576 260.699 202.558 273.424 177.441 279.024C152.324 284.623 126.196 282.854 102.25 273.932C91.2844 270.447 79.6759 269.3 68.1779 270.565C56.6799 271.83 45.5494 275.479 35.5088 281.275C33.4989 282.435 31.5463 283.563 29.9623 284.93L74.0187 209.65L81.3726 197.852C93.1076 214.657 110.818 226.4 131.002 230.759C151.185 235.118 172.372 231.776 190.371 221.394ZM197.212 27.2813C208.145 30.7126 219.706 31.8256 231.153 30.549C242.601 29.2723 253.682 25.6341 263.683 19.8682C265.865 18.6083 267.99 17.3815 269.919 15.8149L224.86 92.8067L218.367 104.107C210.024 91.7209 198.398 81.8793 184.751 75.649C171.103 69.4186 155.954 67.0371 140.946 68.7626C125.937 70.488 111.641 76.2546 99.6071 85.4374C87.5731 94.6203 78.26 106.869 72.6771 120.856L26.3109 200.491C16.7195 176.818 14.3486 150.792 19.4905 125.623C24.6325 100.453 37.0625 77.2407 55.2475 58.8482C73.4326 40.4558 96.5773 27.6877 121.827 22.1185C147.078 16.5494 173.329 18.4229 197.343 27.5079L197.212 27.2813Z" fill="black"/>
</g>
<defs>
<clipPath id="clip0">
<rect width="300" height="300" fill="white"/>
</clipPath>
</defs>
</svg>
