<svg width="300" height="300" viewBox="0 0 300 300" fill="none" xmlns="http://www.w3.org/2000/svg">
<g clip-path="url(#clip0)">
<path d="M187.054 214.735C200.482 207.004 211.237 195.383 217.857 181.452L262.717 104.834C271.332 126.472 273.383 150.209 268.621 173.145C263.858 196.08 252.488 217.221 235.899 233.984C219.31 250.746 198.22 262.405 175.208 267.535C152.196 272.665 128.258 271.044 106.318 262.871C96.2714 259.677 85.6357 258.626 75.1013 259.785C64.5668 260.944 54.369 264.287 45.1699 269.598C43.3283 270.661 41.5394 271.694 40.0881 272.947L80.4526 203.975L87.1903 193.166C97.9419 208.562 114.168 219.321 132.661 223.315C151.153 227.309 170.564 224.247 187.054 214.735ZM193.323 36.8889C203.339 40.0326 213.931 41.0524 224.42 39.8827C234.908 38.713 245.06 35.3797 254.223 30.097C256.223 28.9427 258.169 27.8187 259.936 26.3834L218.653 96.9232L212.705 107.277C205.06 95.9285 194.409 86.9116 181.905 81.2034C169.401 75.4951 155.522 73.3132 141.771 74.8941C128.02 76.4749 114.922 81.7583 103.897 90.1716C92.8712 98.5849 84.3386 109.807 79.2235 122.622L36.7427 195.584C27.9551 173.895 25.7828 150.05 30.4939 126.989C35.205 103.929 46.5934 82.6617 63.2545 65.8106C79.9157 48.9594 101.121 37.2612 124.255 32.1588C147.389 27.0564 171.44 28.7728 193.443 37.0965L193.323 36.8889Z" fill="#E2E8D6"/>
<path d="M82.87 137.17C92.88 137.17 101.46 144.71 101.46 155.89C101.46 167.46 92.88 174.74 82.87 174.74C72.73 174.74 64.67 167.07 64.67 155.89C64.67 144.32 72.73 137.17 82.87 137.17ZM102.5 97.13V132.62C98.73 125.99 88.2 122.35 81.44 122.35C62.72 122.35 48.81 133.79 48.81 155.89C48.81 176.95 62.98 189.43 81.83 189.43C89.63 189.43 97.56 186.83 102.5 179.16L103.54 188H118.36V97.13H102.5ZM167.07 137.17C177.21 137.17 185.27 144.32 185.27 155.89C185.27 167.07 177.21 174.74 167.07 174.74C157.06 174.74 148.48 167.46 148.48 155.89C148.48 144.71 157.06 137.17 167.07 137.17ZM131.58 97.13V188H146.4L147.44 179.16C152.38 186.83 160.31 189.43 168.11 189.43C186.96 189.43 201.13 176.95 201.13 155.89C201.13 133.79 187.22 122.35 168.5 122.35C161.74 122.35 151.21 125.99 147.44 132.62V97.13H131.58ZM217.096 107.53V124.04H205.136V137.69H217.096V165.38C217.096 181.37 226.196 189.3 240.106 188.78C244.916 188.65 248.686 187.87 253.236 186.05L248.816 172.53C246.476 173.7 243.616 174.48 241.146 174.48C236.206 174.48 232.826 171.49 232.826 165.38V137.69H250.636V124.04H232.956V105.84L217.096 107.53Z" fill="#FF694A"/>
</g>
<defs>
<clipPath id="clip0">
<rect width="300" height="300" fill="white"/>
</clipPath>
</defs>
</svg>
