<svg width="300" height="300" viewBox="0 0 300 300" fill="none" xmlns="http://www.w3.org/2000/svg">
<g clip-path="url(#clip0)">
<path d="M187.054 214.735C200.482 207.004 211.237 195.383 217.857 181.452L262.717 104.834C271.332 126.472 273.383 150.209 268.621 173.145C263.858 196.08 252.488 217.221 235.899 233.984C219.31 250.746 198.22 262.405 175.208 267.535C152.196 272.665 128.258 271.044 106.318 262.871C96.2714 259.677 85.6357 258.626 75.1013 259.785C64.5668 260.944 54.369 264.287 45.1699 269.598C43.3283 270.661 41.5394 271.694 40.0881 272.947L80.4526 203.975L87.1903 193.166C97.9419 208.562 114.168 219.321 132.661 223.315C151.153 227.309 170.564 224.247 187.054 214.735ZM193.323 36.8889C203.339 40.0326 213.931 41.0524 224.42 39.8827C234.908 38.713 245.06 35.3797 254.223 30.097C256.223 28.9427 258.169 27.8187 259.936 26.3834L218.653 96.9232L212.705 107.277C205.06 95.9285 194.409 86.9116 181.905 81.2034C169.401 75.4951 155.522 73.3132 141.771 74.8941C128.02 76.4749 114.922 81.7583 103.897 90.1716C92.8712 98.5849 84.3386 109.807 79.2235 122.622L36.7427 195.584C27.9551 173.895 25.7828 150.05 30.4939 126.989C35.205 103.929 46.5934 82.6617 63.2545 65.8106C79.9157 48.9594 101.121 37.2612 124.255 32.1588C147.389 27.0564 171.44 28.7728 193.443 37.0965L193.323 36.8889Z" fill="#E2E8F0"/>
<path d="M227.051 65.5375C225.087 64.194 222.882 63.2429 220.557 62.7363C218.172 62.2116 215.713 62.1168 213.295 62.4562C210.76 62.81 208.304 63.5923 206.032 64.7697L195.43 70.621L184.806 76.4619L174.172 82.3028L163.548 88.1956C161.247 89.5423 158.782 90.5883 156.214 91.308C153.728 92.0288 151.155 92.4057 148.568 92.4284C145.984 92.46 143.409 92.1424 140.911 91.4843C138.334 90.8017 135.857 89.7832 133.545 88.4549L123.243 82.8527L112.941 77.2504L102.639 71.6688L92.3268 66.0666C88.5067 63.628 83.9369 62.6448 79.4519 63.2965C75.3128 63.9401 71.4746 65.8501 68.4653 68.764C65.4312 71.6399 63.368 75.3892 62.5621 79.4913C61.734 83.939 62.5487 88.5361 64.8549 92.4284L68.4653 99.0474L76.4226 113.572L84.3799 128.096L88.0006 134.715C89.3459 136.992 90.392 139.433 91.113 141.977C91.7964 144.465 92.1453 147.033 92.1505 149.613C92.1457 152.2 91.7969 154.775 91.113 157.27C90.4721 159.896 89.4848 162.425 88.177 164.791L82.5228 175.342L76.8583 185.862L71.1938 196.371L65.5292 206.891C64.5776 208.616 63.8456 210.452 63.3506 212.359C62.8836 214.16 62.6741 216.018 62.7281 217.878C62.7976 219.705 63.1475 221.511 63.7656 223.231C64.3891 225.035 65.2923 226.729 66.4422 228.253C67.8427 230.177 69.5831 231.83 71.5776 233.129C73.5599 234.446 75.7582 235.404 78.0721 235.961C80.4465 236.543 82.905 236.701 85.3343 236.428C87.8688 236.136 90.3294 235.388 92.5966 234.218L103.625 228.17L114.643 222.132L125.66 216.083L136.678 210.035C133.364 207.655 130.302 204.944 127.538 201.943C124.768 198.927 122.226 195.708 119.934 192.315C117.62 188.912 115.504 185.364 113.543 181.754C111.79 178.538 110.161 175.28 108.594 172.043C111.364 177.23 117.33 182.739 125.079 188.269C134.506 194.756 144.329 200.646 154.491 205.906C165.177 211.591 176.143 216.965 185.615 221.717C195.087 226.468 203.117 230.587 207.879 233.73C211.724 236.006 216.292 236.726 220.65 235.743C224.691 234.738 228.318 232.497 231.025 229.332C233.859 226.12 235.7 222.156 236.326 217.919C236.979 213.441 236.055 208.875 233.712 205.003L227.197 193.218L212.931 167.281L198.666 141.345L192.224 129.694C190.844 127.37 189.344 125.119 187.732 122.95C186.13 120.822 184.397 118.795 182.544 116.881C180.703 114.976 178.734 113.198 176.652 111.559C174.534 109.892 172.294 108.387 169.95 107.057C173.591 108.717 177.295 110.439 180.926 112.296C184.584 114.139 188.144 116.172 191.591 118.386C195.034 120.591 198.295 123.068 201.343 125.793C204.419 128.563 207.184 131.659 209.591 135.026L215.453 124.299L221.314 113.572L227.197 102.824L233.058 92.0964C234.035 90.4838 234.77 88.7359 235.237 86.9091C235.703 85.0972 235.912 83.2289 235.859 81.3587C235.789 79.4709 235.439 77.604 234.822 75.8187C234.195 73.9913 233.281 72.2753 232.114 70.7351C230.785 68.686 229.065 66.9196 227.051 65.5375ZM91.1026 215.803C91.2542 217.996 90.4585 220.149 88.9171 221.716C87.3758 223.283 85.2366 224.114 83.0416 223.999C78.5552 224.036 74.8881 220.43 74.8508 215.943C74.8136 211.457 78.4203 207.79 82.9067 207.752C85.0985 207.598 87.2514 208.391 88.819 209.931C90.3865 211.47 91.2181 213.609 91.1026 215.803ZM75.0324 83.3299C74.8808 81.137 75.6765 78.9844 77.2179 77.4172C78.7592 75.8501 80.8983 75.0188 83.0934 75.134C85.2863 74.9824 87.4389 75.7781 89.0061 77.3194C90.5732 78.8608 91.4045 80.9999 91.2894 83.195C91.4409 85.3879 90.6452 87.5405 89.1039 89.1077C87.5625 90.6748 85.4234 91.5061 83.2283 91.3909C81.0354 91.5425 78.8828 90.7468 77.3157 89.2055C75.7485 87.6641 74.9172 85.525 75.0324 83.3299ZM223.68 215.554C223.713 218.846 221.759 221.833 218.731 223.121C215.702 224.41 212.195 223.746 209.847 221.439C207.498 219.133 206.772 215.638 208.006 212.587C209.24 209.535 212.192 207.529 215.484 207.503C217.675 207.349 219.828 208.142 221.396 209.682C222.963 211.221 223.795 213.36 223.68 215.554ZM168.694 146.49C166.298 142.569 162.345 141.033 157.604 141.085C151.128 141.302 145.401 145.348 143.033 151.38C140.666 157.411 142.111 164.273 146.71 168.837C141.571 168.183 136.908 165.497 133.763 161.38C130.619 157.262 129.255 152.057 129.976 146.926C131.501 136.645 141.72 128.656 151.991 130.099C160.685 131.572 167.833 137.807 168.673 146.49H168.694ZM224.261 82.6452C224.148 87.0264 220.585 90.5308 216.202 90.5699C211.82 90.6091 208.194 87.1689 208.004 82.7904C208.116 78.4092 211.679 74.9048 216.062 74.8656C220.444 74.8265 224.07 78.2667 224.261 82.6452Z" fill="#FF694B"/>
</g>
<defs>
<clipPath id="clip0">
<rect width="300" height="300" fill="white"/>
</clipPath>
</defs>
</svg>
