<svg width="1854" height="456" viewBox="0 0 1854 456" xmlns="http://www.w3.org/2000/svg">
<path d="M227.655 283.996C240.771 276.444 251.277 265.092 257.744 251.484L301.565 176.641C309.98 197.777 311.984 220.964 307.332 243.369C302.679 265.773 291.572 286.424 275.368 302.798C259.163 319.173 238.562 330.561 216.083 335.572C193.604 340.584 170.221 339 148.789 331.016C138.975 327.897 128.586 326.87 118.296 328.002C108.005 329.134 98.0437 332.4 89.0577 337.587C87.2588 338.626 85.5113 339.635 84.0937 340.859L123.523 273.485L130.105 262.926C140.607 277.966 156.458 288.476 174.521 292.377C192.585 296.279 211.546 293.288 227.655 283.996ZM233.778 110.27C243.562 113.341 253.909 114.337 264.154 113.194C274.4 112.052 284.317 108.796 293.268 103.635C295.221 102.508 297.122 101.41 298.848 100.008L258.522 168.913L252.711 179.027C245.244 167.942 234.839 159.134 222.625 153.558C210.411 147.982 196.853 145.85 183.421 147.394C169.988 148.939 157.194 154.1 146.424 162.318C135.654 170.536 127.319 181.499 122.322 194.017L80.8257 265.288C72.2417 244.101 70.1198 220.809 74.7217 198.283C79.3236 175.757 90.4482 154.982 106.723 138.521C122.998 122.061 143.712 110.633 166.311 105.649C188.909 100.665 212.403 102.342 233.895 110.473L233.778 110.27Z" fill="currentColor"/>
<path d="M445.7 196.7C468.8 196.7 488.6 214.1 488.6 239.9C488.6 266.6 468.8 283.4 445.7 283.4C422.3 283.4 403.7 265.7 403.7 239.9C403.7 213.2 422.3 196.7 445.7 196.7ZM491 104.3V186.2C482.3 170.9 458 162.5 442.4 162.5C399.2 162.5 367.1 188.9 367.1 239.9C367.1 288.5 399.8 317.3 443.3 317.3C461.3 317.3 479.6 311.3 491 293.6L493.4 314H527.6V104.3H491ZM673.609 186.5C665.209 171.8 646.309 162.5 626.509 162.5C583.309 162.2 549.409 188.9 549.409 239.9C549.409 291.8 581.809 318.8 625.609 318.5C642.109 318.2 665.209 309.8 673.609 292.4L675.409 314H709.909V166.1H674.809L673.609 186.5ZM629.809 195.2C687.409 195.2 687.409 284.9 629.809 284.9C605.509 284.9 586.009 268.1 586.009 239.9C586.009 211.7 605.509 195.2 629.809 195.2ZM756.917 128.3V166.4H729.317V197.9H756.917V261.8C756.917 298.7 777.917 317 810.017 315.8C821.117 315.5 829.817 313.7 840.317 309.5L830.117 278.3C824.717 281 818.117 282.8 812.417 282.8C801.017 282.8 793.217 275.9 793.217 261.8V197.9H834.317V166.4H793.517V124.4L756.917 128.3ZM971.429 186.5C963.029 171.8 944.129 162.5 924.329 162.5C881.129 162.2 847.229 188.9 847.229 239.9C847.229 291.8 879.629 318.8 923.429 318.5C939.929 318.2 963.029 309.8 971.429 292.4L973.229 314H1007.73V166.1H972.629L971.429 186.5ZM927.629 195.2C985.229 195.2 985.229 284.9 927.629 284.9C903.329 284.9 883.829 268.1 883.829 239.9C883.829 211.7 903.329 195.2 927.629 195.2ZM1140.54 271.1C1131.54 280.1 1119.84 283.4 1108.14 283.4C1085.34 283.4 1066.14 268.4 1066.14 240.2C1066.14 214.4 1084.14 196.4 1108.74 196.4C1118.94 196.4 1129.74 200.3 1138.44 208.1L1161.54 183.8C1145.34 167.9 1129.14 161.9 1108.14 161.9C1065.24 161.9 1029.54 187.7 1029.54 240.2C1029.54 292.7 1065.24 318.5 1108.14 318.5C1130.04 318.5 1148.04 311.9 1165.14 295.1L1140.54 271.1ZM1244.69 163.1C1197.59 163.1 1168.19 197.9 1168.19 240.2C1168.19 282.8 1196.99 317.3 1244.99 317.3C1292.99 317.3 1322.09 282.8 1322.09 240.2C1322.09 197.9 1291.79 163.1 1244.69 163.1ZM1244.99 196.4C1269.59 196.4 1285.19 218 1285.19 240.2C1285.19 262.7 1271.69 283.7 1244.99 283.7C1218.29 283.7 1204.79 262.7 1204.79 240.2C1204.79 218 1218.59 196.4 1244.99 196.4ZM1447.61 165.8L1427.21 215.3L1404.71 277.1L1381.91 214.7L1361.51 165.8H1321.61L1384.91 314.6H1424.51L1487.51 165.8H1447.61ZM1640.99 253.1C1646.69 192.2 1615.79 161.6 1566.29 161.6C1518.29 161.6 1487.69 194 1487.69 239C1487.69 286.4 1517.99 317.9 1568.99 317.9C1591.49 317.9 1616.99 310.1 1632.59 293.9L1609.19 270.8C1600.79 279.5 1583.09 284.6 1569.59 284.6C1543.79 284.6 1527.89 271.4 1525.49 253.1H1640.99ZM1526.09 222.8C1531.49 203.6 1547.69 194 1567.49 194C1588.49 194 1603.49 203.6 1605.89 222.8H1526.09ZM1775.11 181.4C1758.01 166.4 1740.61 161.9 1717.51 161.9C1690.51 161.9 1655.11 173.9 1655.11 208.1C1655.11 241.7 1688.41 251.9 1716.31 254C1737.31 255.2 1745.71 260.9 1745.71 271.1C1745.71 281.9 1732.81 287.6 1719.01 287.3C1702.51 287 1682.11 281.3 1668.01 266.6L1650.01 292.7C1671.61 315.2 1695.01 319.1 1718.41 319.1C1760.71 319.1 1782.01 296.6 1782.01 270.5C1782.01 231.2 1746.61 224.9 1718.71 223.1C1699.81 221.9 1691.11 216.5 1691.11 206.9C1691.11 197.6 1700.71 192.2 1718.11 192.2C1732.21 192.2 1744.21 195.5 1754.71 205.4L1775.11 181.4Z" fill="currentColor"/>
</svg>
